<?xml version="1.0" encoding="UTF-8" standalone="no"?>
<svg
   xmlns:dc="http://purl.org/dc/elements/1.1/"
   xmlns:cc="http://creativecommons.org/ns#"
   xmlns:rdf="http://www.w3.org/1999/02/22-rdf-syntax-ns#"
   xmlns:svg="http://www.w3.org/2000/svg"
   xmlns="http://www.w3.org/2000/svg"
   viewBox="0 0 2666.6667 2666.6667"
   height="2666.6667"
   width="2666.6667"
   xml:space="preserve"
   id="svg2"
   version="1.1"><metadata
     id="metadata8"><rdf:RDF><cc:Work
         rdf:about=""><dc:format>image/svg+xml</dc:format><dc:type
           rdf:resource="http://purl.org/dc/dcmitype/StillImage" /></cc:Work></rdf:RDF></metadata><defs
     id="defs6"><clipPath
       id="clipPath18"
       clipPathUnits="userSpaceOnUse"><path
         id="path16"
         d="M 0,2000 H 2000 V 0 H 0 Z" /></clipPath></defs><g
     transform="matrix(1.3333333,0,0,-1.3333333,0,2666.6667)"
     id="g10"><g
       id="g12"><g
         clip-path="url(#clipPath18)"
         id="g14"><g
           transform="translate(871.4487,877.5078)"
           id="g20"><path
             id="path22"
             style="fill:#000000;fill-opacity:1;fill-rule:nonzero;stroke:none"
             d="m 0,0 c -0.732,0.096 -1.355,-0.124 -1.872,-0.658 -0.517,-0.536 -0.819,-1.195 -0.904,-1.973 -0.775,-11.11 -3.724,-19.614 -8.845,-25.509 -5.122,-5.897 -11.084,-8.893 -17.883,-8.99 -6.801,-0.099 -13.127,2.631 -18.98,8.187 -5.855,5.553 -9.728,13.35 -11.621,23.387 -2.152,10.819 -1.787,21.27 1.098,31.356 2.883,10.087 8.025,18.393 15.429,24.925 4.304,3.799 9.038,6.015 14.203,6.65 5.166,0.634 9.985,-0.416 14.461,-3.143 4.391,-2.729 7.661,-6.87 9.814,-12.424 0.258,-0.684 0.71,-1.196 1.355,-1.537 0.646,-0.341 1.291,-0.341 1.937,0 0.646,0.341 1.118,0.878 1.421,1.61 0.3,0.73 0.278,1.484 -0.065,2.265 -2.583,6.919 -6.629,12.035 -12.137,15.349 -5.51,3.312 -11.362,4.532 -17.56,3.653 -6.113,-0.78 -11.621,-3.361 -16.527,-7.746 -8.264,-7.407 -13.99,-16.617 -17.173,-27.628 -3.186,-11.208 -3.66,-22.709 -1.42,-34.499 2.237,-11.402 6.734,-20.318 13.493,-26.751 6.756,-6.432 14.18,-9.597 22.272,-9.502 8.264,0.198 15.43,3.751 21.499,10.672 6.068,6.918 9.532,16.614 10.394,29.09 0.084,0.876 -0.11,1.608 -0.581,2.193 C 1.333,-0.438 0.73,-0.099 0,0" /></g><g
           transform="translate(889.977,861.7207)"
           id="g24"><path
             id="path26"
             style="fill:#000000;fill-opacity:1;fill-rule:nonzero;stroke:none"
             d="M 0,0 22.466,66.073 40.672,11.401 44.804,0 Z m 54.487,-11.695 -5.035,14.326 -3.874,10.816 -20.4,61.25 c -0.174,0.487 -0.432,0.926 -0.775,1.316 -0.345,0.389 -0.733,0.68 -1.162,0.877 -0.69,0.293 -1.356,0.268 -2.002,-0.073 C 20.594,76.474 20.142,75.914 19.884,75.136 15.837,62.466 9.813,44.534 1.807,21.342 L -13.17,-22.221 c -0.259,-0.78 -0.239,-1.535 0.065,-2.265 0.3,-0.731 0.794,-1.242 1.484,-1.535 0.688,-0.291 1.356,-0.267 2.001,0.074 0.646,0.342 1.098,0.899 1.356,1.68 l 6.327,18.711 V -5.848 H 46.87 c 2.582,-7.308 4.603,-13.595 6.068,-18.858 0.172,-0.778 0.581,-1.362 1.227,-1.753 0.645,-0.389 1.311,-0.462 2.001,-0.22 0.688,0.245 1.204,0.732 1.549,1.462 0.343,0.731 0.388,1.485 0.13,2.266 -1.033,3.702 -2.153,7.455 -3.358,11.256" /></g><g
           transform="translate(956.601,938.0996)"
           id="g28"><path
             id="path30"
             style="fill:#000000;fill-opacity:1;fill-rule:nonzero;stroke:none"
             d="m 0,0 c -0.517,0.534 -1.142,0.804 -1.873,0.804 -0.732,0 -1.335,-0.293 -1.807,-0.877 -0.474,-0.585 -0.71,-1.316 -0.71,-2.194 0.946,-31.771 1.118,-63.977 0.516,-96.624 0,-0.781 0.236,-1.462 0.71,-2.047 0.472,-0.583 1.076,-0.877 1.808,-0.877 0.731,0 1.356,0.268 1.872,0.804 0.517,0.534 0.775,1.242 0.775,2.12 0.601,32.647 0.43,64.953 -0.517,96.917 C 0.774,-1.195 0.516,-0.537 0,0" /></g><g
           transform="translate(1050.597,936.8564)"
           id="g32"><path
             id="path34"
             style="fill:#000000;fill-opacity:1;fill-rule:nonzero;stroke:none"
             d="M 0,0 C -0.432,0.585 -1.013,0.877 -1.743,0.877 -2.475,0.877 -3.099,0.585 -3.615,0 l -37.186,-42.392 c -10.846,15.006 -21.65,29.186 -32.409,42.538 -0.517,0.681 -1.12,1.024 -1.808,1.024 -0.689,0 -1.291,-0.245 -1.807,-0.732 -0.345,-0.292 -0.561,-0.634 -0.646,-1.022 -0.258,-0.489 -0.387,-0.976 -0.387,-1.462 0,-10.624 -0.064,-26.557 -0.194,-47.802 -0.129,-21.246 -0.194,-37.179 -0.194,-47.799 0,-0.782 0.259,-1.462 0.775,-2.047 0.517,-0.584 1.118,-0.878 1.808,-0.878 0.688,0 1.291,0.294 1.808,0.878 0.516,0.585 0.774,1.265 0.774,2.047 0,10.525 0.064,25.677 0.194,45.46 0.129,19.783 0.194,34.109 0.194,42.978 l 29.697,-39.469 c 0.517,-0.585 1.118,-0.927 1.807,-1.023 0.688,-0.098 1.334,0.096 1.937,0.585 0.258,0.293 0.43,0.584 0.517,0.877 l 34.732,39.468 c 0,-9.063 -0.064,-23.584 -0.193,-43.562 -0.129,-19.978 -0.194,-35.229 -0.194,-45.754 0,-0.781 0.258,-1.461 0.775,-2.046 0.516,-0.585 1.117,-0.878 1.807,-0.878 0.688,0 1.291,0.293 1.808,0.878 0.517,0.585 0.775,1.265 0.775,2.046 0,10.621 0.064,26.555 0.194,47.802 0.129,21.243 0.193,37.177 0.193,47.801 0,0.972 -0.303,1.754 -0.904,2.338 C 0.171,-0.146 0.085,-0.098 0,0" /></g><g
           transform="translate(1069.4467,861.7207)"
           id="g36"><path
             id="path38"
             style="fill:#000000;fill-opacity:1;fill-rule:nonzero;stroke:none"
             d="M 0,0 22.467,66.073 40.672,11.401 44.804,0 Z M 54.488,-11.695 49.452,2.631 45.579,13.447 25.178,74.697 c -0.174,0.487 -0.432,0.926 -0.775,1.316 -0.345,0.389 -0.732,0.68 -1.162,0.877 -0.69,0.293 -1.356,0.268 -2.001,-0.073 C 20.595,76.474 20.143,75.914 19.884,75.136 15.837,62.466 9.813,44.534 1.808,21.342 L -13.17,-22.221 c -0.258,-0.78 -0.238,-1.535 0.065,-2.265 0.3,-0.731 0.794,-1.242 1.484,-1.535 0.688,-0.291 1.356,-0.267 2.002,0.074 0.645,0.342 1.098,0.899 1.356,1.68 l 6.326,18.711 V -5.848 H 46.87 c 2.582,-7.308 4.604,-13.595 6.068,-18.858 0.172,-0.778 0.582,-1.362 1.227,-1.753 0.646,-0.389 1.312,-0.462 2.002,-0.22 0.687,0.245 1.204,0.732 1.549,1.462 0.343,0.731 0.387,1.485 0.129,2.266 -1.033,3.702 -2.153,7.455 -3.357,11.256" /></g><g
           transform="translate(1194.432,937.8799)"
           id="g40"><path
             id="path42"
             style="fill:#000000;fill-opacity:1;fill-rule:nonzero;stroke:none"
             d="M 0,0 C -0.517,0.585 -1.12,0.877 -1.807,0.877 -2.498,0.877 -3.099,0.585 -3.615,0 -4.132,-0.585 -4.39,-1.268 -4.39,-2.047 c 0,-10.038 -0.044,-23.097 -0.129,-39.176 l -12.395,9.501 -14.203,10.965 -11.879,9.501 c -4.822,3.897 -9.168,7.603 -13.041,11.11 -0.517,0.486 -1.142,0.68 -1.872,0.584 -0.733,-0.098 -1.314,-0.489 -1.743,-1.169 -0.432,-0.683 -0.603,-1.461 -0.517,-2.338 v -0.584 c 0,-10.625 -0.064,-26.558 -0.193,-47.803 -0.13,-21.246 -0.194,-37.18 -0.194,-47.8 0,-0.781 0.258,-1.462 0.774,-2.046 0.517,-0.585 1.118,-0.879 1.808,-0.879 0.688,0 1.291,0.294 1.807,0.879 0.517,0.584 0.775,1.265 0.775,2.046 0,10.62 0.065,26.043 0.194,46.266 0.13,20.22 0.194,35.057 0.194,44.511 l 12.525,-10.378 11.878,-9.356 13.17,-10.232 12.266,-9.356 c 0.172,-0.098 0.388,-0.196 0.646,-0.293 -0.173,-23 -0.258,-39.858 -0.258,-50.577 0,-0.781 0.258,-1.462 0.775,-2.047 0.516,-0.584 1.117,-0.878 1.807,-0.878 0.688,0 1.292,0.294 1.808,0.878 0.516,0.585 0.774,1.266 0.774,2.047 0,10.719 0.065,26.824 0.195,48.312 C 0.71,-28.87 0.775,-12.768 0.775,-2.047 0.775,-1.268 0.517,-0.585 0,0" /></g><g
           transform="translate(1059.205,1111.4775)"
           id="g44"><path
             id="path46"
             style="fill:#ebc066;fill-opacity:1;fill-rule:nonzero;stroke:none"
             d="M 0,0 C -0.007,0 -0.014,-0.002 -0.021,-0.003 -0.014,0.001 -0.007,0.005 0,0.009 Z m 13.229,-118.076 c -2.522,9.489 -6.249,18.927 -11.121,28.148 -0.18,0.342 -0.295,0.597 -0.367,0.781 0.177,0.157 0.455,0.38 0.881,0.673 7.353,5.065 11.801,12.362 12.863,21.111 0.137,1.137 0.177,2.233 0.216,3.294 0.166,4.501 0.408,4.7 2.549,5.145 3.367,0.688 4.583,4.207 4.803,4.942 0.201,0.691 0.409,0.959 0.454,0.993 0.002,10e-4 0.218,0.127 0.928,0.127 0.314,0 0.676,-0.025 1.084,-0.076 0.444,-0.055 0.89,-0.083 1.326,-0.083 4.429,0 7.935,2.795 9.153,7.312 1.049,3.944 -0.32,7.767 -3.572,9.977 -1.753,1.19 -3.623,1.794 -5.557,1.794 -1.744,0 -3.452,-0.509 -5.007,-1.481 1.238,3.836 0.342,7.466 -2.556,10.127 -1.846,1.687 -4.049,2.579 -6.37,2.579 -1.586,0 -3.155,-0.414 -4.64,-1.219 -3.562,-1.903 -5.344,-5.322 -4.943,-9.331 -1.955,1.541 -4.041,2.321 -6.217,2.321 -1.384,0 -2.768,-0.321 -4.123,-0.956 -3.914,-1.844 -5.822,-5.599 -5.1,-10.064 0.702,-4.234 3.685,-7.193 8.154,-8.112 0.843,-0.179 1.614,-0.235 2.294,-0.284 0.029,-0.003 0.059,-0.005 0.09,-0.007 0.224,-2.233 0.321,-3.56 -0.242,-4.754 -1.9,-4.034 -5.782,-6.54 -10.129,-6.54 -2.798,0 -5.426,1.038 -7.602,3.006 -1.819,1.643 -3.55,3.377 -5.383,5.214 -3.789,3.796 -7.707,7.723 -12.487,10.812 -6.159,3.976 -8.725,9.458 -10.869,17.014 -6.431,22.695 -23.157,35.712 -45.891,35.712 -3.329,0 -6.788,-0.293 -10.274,-0.868 -2.33,-0.379 -8.52,-1.387 -9.763,-8.613 -5.006,-29.045 7.685,-51.682 33.951,-60.556 3.874,-1.307 7.225,-4.563 9.195,-8.934 1.982,-4.397 2.199,-9.104 0.596,-12.914 -1.724,-4.095 -8.098,-7.993 -12.232,-8.492 -0.115,-0.014 -0.242,-0.021 -0.378,-0.021 -3.217,0 -8.657,3.495 -10.025,7.203 -0.546,1.483 -0.693,2.2 -0.714,2.544 0.135,0.079 0.367,0.193 0.737,0.317 4.935,1.645 7.5,5.939 6.537,10.935 -0.857,4.466 -3.872,7.391 -8.062,7.824 -0.41,0.043 -0.819,0.064 -1.216,0.064 -3.602,0 -6.548,-1.763 -8.286,-4.843 -1.294,5.074 -5.021,6.527 -7.34,6.933 -0.6,0.104 -1.201,0.157 -1.786,0.157 -3.525,0 -6.525,-1.874 -8.223,-5.127 -1.947,-3.698 -1.533,-7.559 1.054,-10.667 -0.581,0.089 -1.164,0.135 -1.734,0.135 -0.64,0 -1.266,-0.058 -1.844,-0.169 -4.655,-0.872 -7.689,-4.488 -7.731,-9.213 -0.024,-2.721 1.041,-5.502 2.781,-7.258 1.34,-1.352 3.06,-2.097 4.842,-2.097 0.798,0 1.59,0.147 2.371,0.443 1.296,0.497 2.512,0.738 3.72,0.738 2.28,0 4.607,-0.834 7.78,-2.787 1.12,-0.701 2.276,-0.849 3.053,-0.849 0.888,0 1.754,0.199 2.547,0.596 0.519,0.267 0.831,0.352 0.975,0.379 0.437,-0.328 1.219,-1.438 1.749,-2.19 0.389,-0.551 0.791,-1.122 1.241,-1.702 0.554,-0.712 1.092,-1.41 1.618,-2.093 6.415,-8.331 11.956,-15.527 24.705,-19.252 0.306,-0.089 0.556,-0.172 0.76,-0.246 -0.078,-0.224 -0.18,-0.5 -0.317,-0.839 -3.523,-8.733 -5.152,-17.442 -4.864,-25.962 -46.801,9.278 -81.41,51.214 -81.41,99.86 0,53.256 41.461,97.005 93.798,100.678 8.459,-2.397 16.916,-4.802 25.34,-7.314 1.765,-0.526 3.368,-1.593 4.947,-2.775 -4.881,-0.228 -9.634,-1.55 -14.449,0.584 -5.211,2.31 -10.529,4.529 -16.008,6.026 -3.361,0.918 -7.112,0.405 -10.731,-0.102 8.591,-4.542 17.698,-7.338 27.18,-7.971 -4.843,-0.497 -9.676,-1.248 -14.532,-1.441 -12.23,-0.486 -22.6,-4.947 -31.721,-14.211 15.16,1.888 26.495,12.865 42.028,14.006 -8.193,-4.369 -15.229,-8.962 -18.966,-17.314 3.668,2.349 7.454,4.536 10.974,7.089 4.421,3.207 8.547,6.819 12.966,10.028 1.385,1.005 3.306,1.271 5.255,1.443 -6.797,-6.367 -12.771,-13.156 -16.524,-21.689 6.613,7.051 15.497,12.055 19.444,21.943 1.937,0.059 4.131,0.126 7.056,0.215 -4.792,-5.896 -9.202,-11.321 -13.611,-16.746 7.845,3.004 13.275,8.227 15.548,16.711 2.475,-0.098 4.892,-0.193 8.546,-0.338 -9.888,-5.742 -13.859,-14.458 -16.456,-24.097 1.678,2.46 3.275,4.979 5.051,7.366 3.869,5.205 7.798,10.366 11.796,15.473 0.439,0.561 1.491,0.94 2.238,0.908 2.215,-0.095 4.42,-0.438 6.814,-0.993 -8.959,-3.568 -13.987,-10.574 -17.429,-19.049 5.176,2.757 9.311,6.719 13.068,11.125 1.309,1.535 2.589,3.096 3.902,4.627 1.844,2.151 4.047,3.331 6.935,2.576 1.817,-1.083 3.597,-2.22 5.338,-3.411 0.498,-0.48 1.072,-1.033 1.899,-1.829 -2.68,-0.672 -4.856,-1.044 -6.904,-1.773 -2.896,-1.03 -6.162,-1.755 -8.444,-3.621 -4.988,-4.081 -9.456,-8.799 -14.136,-13.256 3.257,1.91 7.09,3.044 10.353,4.946 5.795,3.377 11.577,6.778 17.402,10.104 2.516,1.437 3.729,2.079 4.917,1.712 0.988,-0.77 1.96,-1.561 2.918,-2.367 0.305,-0.328 0.628,-0.679 0.99,-1.078 -5.913,-4.943 -12.821,-8.895 -17.392,-15.4 6.759,4.125 13.518,8.25 20.713,12.641 2.145,-2.022 4.2,-4.138 6.162,-6.338 -2.683,0.055 -4.993,0.102 -7.758,0.159 3.424,-1.863 7.435,-1.563 10.674,-3.577 0.686,-0.843 1.359,-1.697 2.018,-2.561 -9.318,0.218 -18.069,-0.111 -26.235,-3.837 5.262,0.512 10.646,-0.132 15.895,0.486 3.221,0.38 6.399,1.123 9.62,1.485 C 19.052,11.168 17.763,10.548 16.479,9.91 10.991,9.763 5.726,8.806 0.844,6.217 c 3.359,0.842 6.948,0.611 10.339,1.291 0.324,0.065 0.65,0.12 0.978,0.169 C 11.38,7.262 10.599,6.848 9.824,6.422 7.964,5.386 6.131,4.306 4.321,3.191 1.408,3.253 -1.507,3.374 -4.416,3.282 -5.987,3.232 -7.543,2.698 -9.987,2.206 -5.746,0.745 -1.31,0.779 2.44,2.006 1.408,1.331 0.39,0.637 -0.612,-0.079 -6.976,-1.061 -14.373,-5.62 -17.356,-11.313 c 3.233,1.989 6.495,3.934 9.691,5.98 2.592,1.66 5.116,3.426 7.683,5.148 l 0.004,-0.05 c 0.031,0.06 0.068,0.09 0.105,0.124 0.033,0.022 0.065,0.044 0.098,0.066 0.168,-0.093 0.319,-0.118 0.49,-0.22 C -0.162,-1.421 -1.131,-2.52 -1.896,-3.747 -3.24,-5.903 -4.458,-8.138 -5.729,-10.34 -2.263,-5.636 2.2,-1.619 5.742,3.033 5.991,3.154 6.239,3.279 6.489,3.398 6.5,3.392 6.511,3.386 6.521,3.38 5.046,-0.758 3.571,-4.897 2.097,-9.036 4.086,-4.69 8.231,-1.135 8.161,4.182 8.914,4.53 9.665,4.88 10.422,5.216 c 0.37,0.162 0.743,0.315 1.114,0.474 -1.205,-3.65 -2.338,-7.086 -3.51,-10.637 3.75,2.722 5.176,6.554 3.944,10.822 1.046,0.446 2.094,0.882 3.148,1.308 0.124,-0.008 0.233,-0.015 0.299,-0.02 C 14.483,2.775 13.541,-1.66 12.598,-6.096 14.046,-1.269 16.37,3.377 17.845,8.192 17.73,8.173 17.616,8.154 17.501,8.135 c 0.042,0.016 0.085,0.032 0.128,0.048 0.073,0.007 0.146,0.013 0.22,0.02 -0.001,-0.004 -0.003,-0.007 -0.004,-0.011 0.041,0.007 0.082,0.014 0.123,0.021 L 17.89,8.265 c 0.45,0.176 0.897,0.351 1.318,0.516 0.453,0.171 0.904,0.347 1.357,0.514 -1.3,-4.095 -2.599,-8.186 -3.898,-12.276 1.571,4.585 4.769,8.625 6.438,13.177 0.129,0.045 0.259,0.091 0.388,0.137 C 24.205,9.318 24.899,8.291 25.574,7.249 25.421,6.761 25.146,6.208 24.733,5.57 22.76,2.52 21.657,-1.095 20.174,-4.463 c 2.018,2.863 4.693,5.314 7.266,8.714 9.068,-15.135 14.289,-32.826 14.289,-51.716 0,-26.548 -10.302,-51.872 -28.5,-70.611 M -39.264,51.486 c 5.231,-1.869 10.092,-5.044 14.723,-8.836 -2.494,-0.079 -5.224,-0.453 -7.239,0.576 -5.955,3.041 -11.646,6.574 -17.024,9.71 3.227,-0.332 6.409,-0.82 9.54,-1.45 m 27.638,-10.393 c -2.607,0.274 -4.349,0.744 -6.028,0.578 -4.316,-0.427 -6.062,2.92 -8.411,5.398 -0.062,0.066 0.13,0.373 0.33,0.688 3.894,-1.373 7.679,-2.978 11.339,-4.799 0.797,-0.536 1.688,-1.136 2.77,-1.865 m 57.907,-88.558 c 0,58.258 -47.228,105.486 -105.486,105.486 -58.258,0 -105.486,-47.228 -105.486,-105.486 0,-53.307 39.697,-98.223 91.05,-105.33 l -0.156,0.845 c -1.241,9.764 0.33,19.404 4.154,28.885 1.513,3.754 1.491,5.735 -3.392,7.158 -12.268,3.584 -16.775,10.469 -24.001,19.768 -1.964,2.528 -3.425,5.662 -6.491,5.663 -0.895,0 -1.927,-0.267 -3.149,-0.895 -0.125,-0.063 -0.293,-0.093 -0.467,-0.093 -0.236,0 -0.484,0.056 -0.648,0.161 -3.293,2.031 -6.566,3.475 -10.184,3.475 -1.695,0 -3.466,-0.317 -5.351,-1.039 -0.254,-0.097 -0.502,-0.142 -0.741,-0.142 -1.791,0 -3.091,2.523 -3.071,4.762 0.023,2.561 1.468,4.302 4.017,4.78 0.324,0.062 0.663,0.091 1.006,0.091 0.79,0 1.607,-0.152 2.329,-0.398 0.98,-0.335 1.932,-0.646 2.82,-0.646 1.01,0 1.935,0.401 2.722,1.625 1.639,2.538 0.228,4.176 -1.673,5.781 -2.094,1.775 -2.845,4.029 -1.491,6.601 0.918,1.758 2.377,2.696 4.196,2.696 0.324,0 0.659,-0.03 1.006,-0.09 2.993,-0.524 3.812,-2.788 3.994,-5.44 0.159,-2.322 0.194,-4.859 3.323,-5.03 0.086,-0.005 0.171,-0.007 0.254,-0.007 2.377,0 3.214,1.867 3.786,3.979 0.722,2.656 2.337,4.341 5.049,4.341 0.24,0 0.487,-0.013 0.744,-0.039 2.424,-0.251 3.642,-1.958 4.063,-4.155 0.558,-2.89 -0.945,-4.905 -3.505,-5.758 -5.053,-1.696 -4.109,-5.349 -2.857,-8.752 1.995,-5.404 9.113,-10.183 14.298,-10.183 0.318,0 0.628,0.018 0.929,0.055 5.19,0.626 13.327,5.189 15.876,11.243 4.381,10.414 -1.878,24.332 -12.53,27.928 -25.402,8.582 -35.279,30.182 -30.921,55.469 0.615,3.574 3.004,4.405 6.009,4.894 3.279,0.541 6.467,0.808 9.542,0.808 20.155,0 35.577,-11.458 41.511,-32.4 2.345,-8.263 5.429,-14.852 12.781,-19.598 6.532,-4.222 11.528,-10.379 17.287,-15.58 3.145,-2.843 6.933,-4.179 10.653,-4.179 5.821,0 11.477,3.271 14.248,9.152 1.217,2.584 0.853,5.076 0.591,7.762 -0.387,4.109 -3.494,3.164 -5.906,3.676 -2.436,0.501 -4.188,1.866 -4.609,4.404 -0.364,2.254 0.375,4.177 2.549,5.201 0.764,0.359 1.489,0.522 2.183,0.522 1.465,0 2.787,-0.729 4.031,-1.887 1.322,-1.218 2.482,-3.155 4.294,-3.155 0.544,0 1.146,0.174 1.829,0.594 2.571,1.593 1.252,4.006 0.751,6.179 -0.569,2.482 0.079,4.576 2.401,5.816 0.838,0.455 1.678,0.681 2.494,0.681 1.167,0 2.288,-0.463 3.298,-1.386 1.947,-1.787 1.981,-3.961 0.956,-6.248 -0.989,-2.208 -2.867,-4.587 -0.113,-6.601 0.743,-0.545 1.437,-0.766 2.095,-0.766 1.611,0 3.007,1.323 4.38,2.462 1.052,0.875 2.175,1.315 3.317,1.315 0.997,0 2.008,-0.335 3,-1.009 1.775,-1.206 2.253,-3.072 1.73,-5.041 -0.67,-2.481 -2.392,-3.929 -4.754,-3.929 -0.249,0 -0.504,0.016 -0.766,0.049 -0.576,0.072 -1.125,0.11 -1.644,0.11 -2.836,0 -4.811,-1.159 -5.753,-4.401 -0.205,-0.683 -0.786,-1.639 -1.344,-1.753 -7.283,-1.514 -5.781,-7.409 -6.373,-12.359 -0.922,-7.591 -4.745,-13.645 -10.925,-17.902 -3.175,-2.185 -3.767,-3.903 -1.957,-7.329 5.94,-11.244 10.128,-22.761 12.45,-34.551 l 0.121,-0.21 c 18.428,16.251 31.049,38.983 34.603,64.544 -0.042,-0.716 -0.078,-1.431 -0.132,-2.149 0.406,4.149 1.252,8.308 1.147,12.444 -0.009,0.365 -0.038,0.723 -0.05,1.086 0.036,1.138 0.059,2.279 0.059,3.425" /></g><g
           transform="translate(958.1845,1093.0161)"
           id="g48"><path
             id="path50"
             style="fill:#ebc066;fill-opacity:1;fill-rule:nonzero;stroke:none"
             d="m 0,0 c -1.496,-1.112 -0.648,-4.786 1.894,-8.205 2.542,-3.42 5.815,-5.29 7.311,-4.178 1.496,1.112 0.648,4.786 -1.893,8.205 C 4.77,-0.758 1.496,1.112 0,0" /></g><g
           transform="translate(976.2861,1107.7671)"
           id="g52"><path
             id="path54"
             style="fill:#ebc066;fill-opacity:1;fill-rule:nonzero;stroke:none"
             d="m 0,0 c -1.496,-1.112 -0.648,-4.786 1.894,-8.205 2.542,-3.42 5.815,-5.29 7.311,-4.178 1.496,1.112 0.648,4.786 -1.894,8.205 C 4.77,-0.758 1.496,1.112 0,0" /></g></g></g></g></svg>